<svg width="19" height="18" viewBox="0 0 19 18" fill="none" xmlns="http://www.w3.org/2000/svg">
<path d="M18.2705 3.85708C18.2705 3.1751 17.9996 2.52105 17.5174 2.03881C17.0351 1.55657 16.3811 1.28566 15.6991 1.28566H15.0562V0.660879C15.0562 0.314941 14.7902 0.0180217 14.4443 0.000744902C14.3574 -0.00344299 14.2705 0.0100599 14.189 0.0404356C14.1074 0.0708113 14.0329 0.117427 13.9699 0.177459C13.9069 0.23749 13.8567 0.309687 13.8225 0.389675C13.7882 0.469664 13.7705 0.555777 13.7705 0.642798V1.28566H4.77051V0.660879C4.77051 0.314941 4.50453 0.0180217 4.15859 0.000744902C4.07167 -0.00344299 3.9848 0.0100599 3.90325 0.0404356C3.82171 0.0708113 3.74718 0.117427 3.68418 0.177459C3.62118 0.23749 3.57102 0.309687 3.53675 0.389675C3.50248 0.469664 3.4848 0.555777 3.48479 0.642798V1.28566H2.84194C2.15995 1.28566 1.5059 1.55657 1.02366 2.03881C0.541425 2.52105 0.270508 3.1751 0.270508 3.85708V4.33923C0.270508 4.38185 0.28744 4.42273 0.31758 4.45287C0.34772 4.48301 0.388598 4.49994 0.431222 4.49994H18.1098C18.1524 4.49994 18.1933 4.48301 18.2234 4.45287C18.2536 4.42273 18.2705 4.38185 18.2705 4.33923V3.85708ZM0.270508 15.4285C0.270508 16.1105 0.541425 16.7645 1.02366 17.2468C1.5059 17.729 2.15995 17.9999 2.84194 17.9999H15.6991C16.3811 17.9999 17.0351 17.729 17.5174 17.2468C17.9996 16.7645 18.2705 16.1105 18.2705 15.4285V5.90619C18.2705 5.87422 18.2578 5.84356 18.2352 5.82096C18.2126 5.79835 18.1819 5.78566 18.15 5.78566H0.391044C0.359075 5.78566 0.328417 5.79835 0.305812 5.82096C0.283207 5.84356 0.270508 5.87422 0.270508 5.90619V15.4285ZM14.0919 7.07137C14.2827 7.07137 14.4691 7.12792 14.6277 7.23388C14.7862 7.33984 14.9098 7.49044 14.9828 7.66664C15.0558 7.84284 15.0749 8.03673 15.0377 8.22378C15.0005 8.41083 14.9086 8.58265 14.7738 8.71751C14.6389 8.85237 14.4671 8.94421 14.2801 8.98141C14.093 9.01862 13.8991 8.99952 13.7229 8.92654C13.5467 8.85355 13.3961 8.72996 13.2902 8.57138C13.1842 8.41281 13.1277 8.22637 13.1277 8.03566C13.1277 7.77991 13.2292 7.53464 13.4101 7.3538C13.5909 7.17296 13.8362 7.07137 14.0919 7.07137ZM14.0919 10.2857C14.2827 10.2857 14.4691 10.3422 14.6277 10.4482C14.7862 10.5541 14.9098 10.7047 14.9828 10.8809C15.0558 11.0571 15.0749 11.251 15.0377 11.4381C15.0005 11.6251 14.9086 11.7969 14.7738 11.9318C14.6389 12.0667 14.4671 12.1585 14.2801 12.1957C14.093 12.2329 13.8991 12.2138 13.7229 12.1408C13.5467 12.0678 13.3961 11.9442 13.2902 11.7857C13.1842 11.6271 13.1277 11.4407 13.1277 11.2499C13.1277 10.9942 13.2292 10.7489 13.4101 10.5681C13.5909 10.3872 13.8362 10.2857 14.0919 10.2857ZM10.8777 7.07137C11.0684 7.07137 11.2548 7.12792 11.4134 7.23388C11.572 7.33984 11.6955 7.49044 11.7685 7.66664C11.8415 7.84284 11.8606 8.03673 11.8234 8.22378C11.7862 8.41083 11.6944 8.58265 11.5595 8.71751C11.4246 8.85237 11.2528 8.94421 11.0658 8.98141C10.8787 9.01862 10.6848 8.99952 10.5086 8.92654C10.3324 8.85355 10.1818 8.72996 10.0759 8.57138C9.96992 8.41281 9.91336 8.22637 9.91336 8.03566C9.91336 7.77991 10.015 7.53464 10.1958 7.3538C10.3766 7.17296 10.6219 7.07137 10.8777 7.07137ZM10.8777 10.2857C11.0684 10.2857 11.2548 10.3422 11.4134 10.4482C11.572 10.5541 11.6955 10.7047 11.7685 10.8809C11.8415 11.0571 11.8606 11.251 11.8234 11.4381C11.7862 11.6251 11.6944 11.7969 11.5595 11.9318C11.4246 12.0667 11.2528 12.1585 11.0658 12.1957C10.8787 12.2329 10.6848 12.2138 10.5086 12.1408C10.3324 12.0678 10.1818 11.9442 10.0759 11.7857C9.96992 11.6271 9.91336 11.4407 9.91336 11.2499C9.91336 10.9942 10.015 10.7489 10.1958 10.5681C10.3766 10.3872 10.6219 10.2857 10.8777 10.2857ZM10.8777 13.4999C11.0684 13.4999 11.2548 13.5565 11.4134 13.6625C11.572 13.7684 11.6955 13.919 11.7685 14.0952C11.8415 14.2714 11.8606 14.4653 11.8234 14.6523C11.7862 14.8394 11.6944 15.0112 11.5595 15.1461C11.4246 15.2809 11.2528 15.3728 11.0658 15.41C10.8787 15.4472 10.6848 15.4281 10.5086 15.3551C10.3324 15.2821 10.1818 15.1585 10.0759 15C9.96992 14.8414 9.91336 14.6549 9.91336 14.4642C9.91336 14.2085 10.015 13.9632 10.1958 13.7824C10.3766 13.6015 10.6219 13.4999 10.8777 13.4999ZM7.66336 10.2857C7.85408 10.2857 8.04052 10.3422 8.19909 10.4482C8.35767 10.5541 8.48126 10.7047 8.55425 10.8809C8.62723 11.0571 8.64633 11.251 8.60912 11.4381C8.57191 11.6251 8.48008 11.7969 8.34522 11.9318C8.21036 12.0667 8.03854 12.1585 7.85149 12.1957C7.66443 12.2329 7.47055 12.2138 7.29435 12.1408C7.11815 12.0678 6.96755 11.9442 6.86159 11.7857C6.75563 11.6271 6.69908 11.4407 6.69908 11.2499C6.69908 10.9942 6.80067 10.7489 6.98151 10.5681C7.16235 10.3872 7.40762 10.2857 7.66336 10.2857ZM7.66336 13.4999C7.85408 13.4999 8.04052 13.5565 8.19909 13.6625C8.35767 13.7684 8.48126 13.919 8.55425 14.0952C8.62723 14.2714 8.64633 14.4653 8.60912 14.6523C8.57191 14.8394 8.48008 15.0112 8.34522 15.1461C8.21036 15.2809 8.03854 15.3728 7.85149 15.41C7.66443 15.4472 7.47055 15.4281 7.29435 15.3551C7.11815 15.2821 6.96755 15.1585 6.86159 15C6.75563 14.8414 6.69908 14.6549 6.69908 14.4642C6.69908 14.2085 6.80067 13.9632 6.98151 13.7824C7.16235 13.6015 7.40762 13.4999 7.66336 13.4999ZM4.44908 10.2857C4.6398 10.2857 4.82623 10.3422 4.98481 10.4482C5.14338 10.5541 5.26698 10.7047 5.33996 10.8809C5.41295 11.0571 5.43204 11.251 5.39484 11.4381C5.35763 11.6251 5.26579 11.7969 5.13093 11.9318C4.99607 12.0667 4.82426 12.1585 4.6372 12.1957C4.45015 12.2329 4.25626 12.2138 4.08006 12.1408C3.90386 12.0678 3.75326 11.9442 3.64731 11.7857C3.54135 11.6271 3.48479 11.4407 3.48479 11.2499C3.48479 10.9942 3.58639 10.7489 3.76723 10.5681C3.94806 10.3872 4.19333 10.2857 4.44908 10.2857ZM4.44908 13.4999C4.6398 13.4999 4.82623 13.5565 4.98481 13.6625C5.14338 13.7684 5.26698 13.919 5.33996 14.0952C5.41295 14.2714 5.43204 14.4653 5.39484 14.6523C5.35763 14.8394 5.26579 15.0112 5.13093 15.1461C4.99607 15.2809 4.82426 15.3728 4.6372 15.41C4.45015 15.4472 4.25626 15.4281 4.08006 15.3551C3.90386 15.2821 3.75326 15.1585 3.64731 15C3.54135 14.8414 3.48479 14.6549 3.48479 14.4642C3.48479 14.2085 3.58639 13.9632 3.76723 13.7824C3.94806 13.6015 4.19333 13.4999 4.44908 13.4999Z" fill="#112211"/>
</svg>
