<svg width="19" height="18" viewBox="0 0 19 18" fill="none" xmlns="http://www.w3.org/2000/svg">
<path d="M13.7158 0.156006C16.4179 0.156119 18.6399 2.40791 18.668 5.17847L18.6621 5.63062C18.5867 7.73082 17.8346 9.69515 16.3711 11.6101L16.0469 12.0203C15.2597 12.9794 13.8711 14.4786 10.7998 16.6316L10.1631 17.071H10.1621C9.92881 17.2301 9.65343 17.3159 9.37109 17.3162L9.26562 17.3123C9.05546 17.2962 8.8515 17.233 8.66895 17.1277L8.5791 17.071L7.94141 16.6316C5.27938 14.7655 3.88174 13.3903 3.04395 12.4324L2.69434 12.0193C1.0164 9.97421 0.159673 7.87955 0.0791016 5.62964L0.0732422 5.17847C0.101341 2.40829 2.32419 0.156006 5.02637 0.156006C6.86863 0.15614 8.18083 1.12846 8.99219 2.01147L9.14746 2.18628C9.17522 2.21824 9.20954 2.2439 9.24805 2.26147C9.28658 2.27905 9.32874 2.28784 9.37109 2.28784C9.41325 2.2878 9.45479 2.27893 9.49316 2.26147C9.51246 2.25268 9.53097 2.24187 9.54785 2.22925L9.59375 2.18628H9.59473C10.3892 1.2614 11.751 0.156006 13.7158 0.156006Z" fill="black" stroke="#4C4850" stroke-width="0.0537946"/>
</svg>
